<?xml version="1.0" standalone="no"?>
<!DOCTYPE svg PUBLIC "-//W3C//DTD SVG 20010904//EN"
 "http://www.w3.org/TR/2001/REC-SVG-20010904/DTD/svg10.dtd">
<svg version="1.0" xmlns="http://www.w3.org/2000/svg"
 width="738.000000pt" height="738.000000pt" viewBox="0 0 738.000000 738.000000"
 preserveAspectRatio="xMidYMid meet">
<metadata>
Created by potrace 1.14, written by Peter Selinger 2001-2017
</metadata>
<g transform="translate(0.000000,738.000000) scale(0.100000,-0.100000)"
fill="#000000" stroke="none">
<path d="M4594 6169 c-6 -8 -15 -41 -19 -74 -41 -355 -158 -622 -368 -841
-137 -144 -310 -266 -469 -331 l-68 -28 0 -181 0 -181 98 24 c167 41 359 31
527 -27 239 -83 474 -282 580 -490 10 -19 36 -66 59 -105 22 -38 39 -74 37
-80 -1 -5 0 -7 4 -3 9 8 6 11 124 -127 203 -237 413 -428 646 -587 145 -99
202 -131 216 -122 8 4 9 3 5 -4 -4 -7 20 -25 63 -47 39 -19 74 -35 78 -35 5 1
-18 14 -49 31 -60 30 -77 46 -33 29 34 -13 31 1 -5 28 -16 13 -30 27 -30 33 0
6 9 1 21 -12 l20 -24 -17 28 c-14 23 -19 25 -32 15 -13 -11 -15 -10 -10 4 4
10 1 19 -8 22 -8 3 -14 13 -14 21 0 9 -4 14 -8 11 -5 -3 -9 1 -9 8 0 7 -14 33
-31 58 -17 25 -28 49 -24 53 4 5 1 5 -5 1 -8 -4 -13 -2 -13 5 0 7 -109 123
-243 258 -133 135 -294 302 -356 371 -123 135 -310 320 -324 320 -4 0 -38 24
-75 53 -65 52 -160 117 -272 190 -70 44 -160 125 -160 143 0 7 44 57 98 111
136 135 219 265 281 439 32 92 61 283 61 408 0 111 -21 314 -38 371 -19 59
-64 144 -99 182 -19 21 -31 31 -27 24 5 -10 -3 -7 -22 6 -16 11 -39 23 -51 27
-12 4 -23 14 -25 23 -3 14 -5 14 -14 2z"/>
<path d="M3865 6103 c-23 -109 -64 -163 -141 -186 l-45 -13 -2 -287 c-1 -158
0 -287 3 -287 3 0 50 25 105 56 126 71 260 172 347 261 71 72 130 144 92 110
-23 -19 -40 -12 -22 10 8 10 8 12 -3 8 -13 -5 -74 75 -116 150 -17 31 -163
180 -190 194 -20 10 -23 9 -28 -16z"/>
<path d="M2462 5215 c-14 -16 -32 -25 -52 -25 -38 0 -39 -18 -2 -52 41 -41 80
-52 108 -33 31 20 30 51 -1 98 -14 20 -27 37 -29 37 -1 0 -12 -11 -24 -25z"/>
<path d="M3520 4845 c-438 -159 -760 -479 -850 -846 -27 -109 -37 -308 -20
-420 49 -337 253 -620 555 -771 132 -66 312 -118 411 -118 l34 0 0 290 c0 251
2 290 15 290 13 0 15 -39 15 -291 l0 -292 60 6 c257 27 521 175 668 375 108
146 152 259 159 412 10 184 -37 339 -142 479 -112 148 -296 241 -475 241 -202
-1 -378 -97 -448 -247 -67 -143 -12 -328 108 -364 32 -10 44 -9 76 7 57 28 74
65 81 183 l6 101 36 0 c74 -1 161 -61 201 -141 14 -26 20 -58 20 -103 0 -160
-95 -287 -249 -336 -243 -77 -524 99 -597 375 -19 69 -18 244 2 324 49 205
198 387 397 488 50 25 67 38 63 49 -3 9 -6 90 -6 180 0 125 -3 164 -12 164 -7
-1 -56 -17 -108 -35z"/>
<path d="M4985 3785 c2 -22 8 -71 14 -110 34 -226 -10 -457 -134 -705 -117
-233 -338 -442 -596 -564 -154 -73 -398 -138 -554 -148 l-40 -3 -2 -270 c-3
-244 -8 -396 -17 -480 -4 -36 3 -57 15 -49 5 3 9 67 9 142 0 128 1 135 16 114
9 -13 17 -31 18 -40 2 -11 12 -17 29 -16 14 0 24 -4 21 -8 -3 -4 3 -8 13 -9
10 -1 43 -3 74 -5 52 -4 57 -2 63 18 6 22 7 22 20 5 11 -14 21 -17 38 -11 13
4 32 9 43 10 79 9 107 14 114 19 5 2 55 14 112 25 129 25 179 42 297 97 51 23
95 43 98 43 3 0 54 24 115 54 103 52 174 96 279 175 67 50 79 54 214 66 84 7
152 35 195 79 43 44 49 89 22 160 -26 69 -26 92 -3 101 19 8 141 12 542 20
230 4 356 11 670 38 14 1 30 5 35 8 6 3 22 5 38 4 15 -1 27 2 27 7 0 4 3 7 8
6 4 0 24 6 44 15 21 10 50 17 64 17 41 0 21 12 -28 17 -24 3 -49 10 -55 15 -7
6 -13 7 -13 2 0 -5 -4 -4 -8 3 -4 6 -61 19 -127 28 -601 81 -1317 271 -1623
428 l-64 33 51 -2 c40 -2 49 0 44 12 -3 8 0 27 6 42 15 39 30 133 37 232 2 30
5 60 5 65 1 6 -2 39 -6 75 -4 36 -9 73 -10 82 -1 10 -4 21 -8 24 -10 10 -9 26
1 20 5 -3 9 1 9 9 0 8 -4 12 -9 9 -4 -3 -8 2 -8 10 0 8 -4 18 -10 21 -6 4 -7
-1 -4 -12 6 -15 4 -15 -9 2 -19 23 -22 39 -6 30 6 -4 5 2 -2 13 -7 12 -17 18
-21 16 -4 -3 -8 3 -8 12 0 10 -3 14 -7 10 -4 -3 -13 4 -20 16 -11 21 -12 20
-8 -17z m142 -1066 c120 -75 80 -273 -59 -295 -120 -20 -219 82 -188 195 30
112 149 160 247 100z"/>
<path d="M1515 3763 c-22 -19 -52 -43 -68 -53 l-28 -17 64 -56 c61 -53 64 -55
93 -42 16 7 42 27 57 45 31 36 35 22 -33 123 -14 20 -29 37 -35 36 -5 0 -28
-16 -50 -36z"/>
<path d="M5670 3771 c0 -25 -32 -51 -63 -51 l-27 0 15 -37 c20 -49 77 -103
110 -103 14 0 34 9 45 20 31 31 26 74 -15 119 -19 21 -35 43 -35 49 0 5 -7 12
-15 16 -10 3 -15 -1 -15 -13z"/>
<path d="M2175 2969 c-440 -150 -1004 -279 -1534 -350 -64 -8 -89 -15 -75 -20
18 -7 18 -8 -2 -8 -11 -1 -24 -4 -27 -8 -10 -9 44 -35 60 -29 11 4 11 1 3 -14
-9 -16 -8 -20 5 -20 10 0 13 5 9 13 -6 9 -5 9 8 0 8 -7 18 -10 21 -6 4 3 7 1
7 -5 0 -7 14 -12 31 -12 21 0 28 4 23 13 -6 9 -4 9 7 1 8 -6 28 -10 46 -9 18
1 30 -2 27 -7 -3 -5 15 -7 41 -5 25 2 48 0 50 -3 2 -4 41 -7 86 -9 45 -1 87
-4 92 -8 6 -4 220 -10 476 -14 257 -5 520 -13 585 -18 139 -12 140 -12 281
-140 51 -45 357 -275 415 -310 124 -77 300 -154 465 -204 183 -56 340 -82 343
-56 1 8 5 30 9 49 l8 35 6 -45 c3 -25 6 72 5 215 l-1 260 -98 7 c-451 32 -847
251 -1105 611 -32 45 -67 97 -78 115 -10 17 -25 31 -34 31 -8 -1 -78 -23 -155
-50z m89 -428 c9 -15 -23 -36 -36 -23 -5 5 -7 15 -4 21 9 13 33 14 40 2z"/>
<path d="M7036 2611 c-7 -11 26 -20 106 -27 46 -4 59 -2 47 5 -9 6 -41 12 -70
14 -30 1 -60 6 -66 10 -6 4 -14 3 -17 -2z"/>
<path d="M235 2570 c-19 -8 -19 -9 2 -9 12 -1 25 4 28 9 7 12 -2 12 -30 0z"/>
<path d="M170 2560 l-35 -7 32 -2 c17 0 35 4 38 9 3 6 5 9 3 9 -2 -1 -19 -5
-38 -9z"/>
<path d="M3653 1675 c0 -22 2 -30 4 -17 2 12 2 30 0 40 -3 9 -5 -1 -4 -23z"/>
</g>
</svg>
